:SAMPLES-PER-SECOND 30
:FULLY-SPECIFIED
:DEGREES
172
root  6.630555851 38.66044593 0.134457331 -169.5800171 -74.69300079 170.4130249
lowerback  19.81500053 3.696650028 -2.55656004
upperback  7.401909828 3.778460026 0.3033199906
thorax  -3.258569956 1.584980011 0.9443500042
lowerneck  -4.285329819 9.096969604 1.011199951
upperneck  8.574449539 12.25730038 -2.214790106
head  3.763809919 5.987760067 -0.3210870028
lclavicle  0 -9.442270133e-015 7.951389973e-016
lhumerus  14.66880035 -8.410550117 75.20210266
lradius  2.616577365e-031 -2.371153081e-031 137.8170013
lwrist  -7.062250077e-031 -3.531125038e-031 2.718509912
lhand  -1.496451383e-031 -27.76390076 20.11240005
lfingers  90 7.125020027 -90
lthumb  89.89689403 5.08795885 91.16245106
rclavicle  0 -9.442270133e-015 7.951389973e-016
rhumerus  34.66749954 30.92840004 -71.38480377
rradius  -1.989524503e-031 2.917299485e-031 124.2929993
rwrist  7.062250077e-031 -0 -9.573470116
rhand  -7.920061211e-032 -33.2840004 9.303460121
rfingers  -90 -7.125020027 -90
rthumb  -92.93752616 -24.25625642 -97.11982154
rfemur  -27.04990005 20.3871994 -4.431789875
rtibia  -0 0 52.30479813
rfoot  -4.6433652e-032 -18.08749962 -3.965500116
rtoes  5.373923086 19.29304026 -105.8922705
lfemur  -38.27709961 1.000570059 -10.66539955
ltibia  -0 0 59.17160034
lfoot  4.427539407e-032 -4.497439861 -3.168849945
ltoes  -4.250644065 -19.5611806 -102.515957
173
root  6.680066567 38.59622084 0.1021848889 -170.7730103 -74.68800354 171.6900024
lowerback  19.59490013 4.169280052 -1.77857995
upperback  7.318799973 4.516849995 -0.4255309999
thorax  -3.141530037 1.971519947 -0.4186339974
lowerneck  -4.593800068 8.443909645 3.201519966
upperneck  9.164179802 11.18840027 -2.003609896
head  4.152639866 5.527150154 -0.6343439817
lclavicle  0 -9.442270133e-015 7.951389973e-016
lhumerus  16.04089928 -10.59060001 74.30220032
lradius  2.587287765e-031 -2.403078454e-031 137.1139984
lwrist  -7.062250077e-031 -0 2.499629974
lhand  -1.496451383e-031 -27.76390076 20.11240005
lfingers  90 7.125020027 -90
lthumb  89.89689403 5.08795885 91.16245106
rclavicle  0 -9.442270133e-015 7.951389973e-016
rhumerus  33.5644989 28.66279984 -72.56130219
rradius  -1.980145724e-031 2.923673536e-031 124.1090012
rwrist  7.062250077e-031 -0 -8.335630417
rhand  -7.920061211e-032 -33.2840004 9.303460121
rfingers  -90 -7.125020027 -90
rthumb  -92.93752616 -24.25625642 -97.11982154
rfemur  -26.45260048 20.80780029 -3.903620005
rtibia  -0 0 53.20700073
rfoot  -4.627475656e-032 -17.47509956 -2.978869915
rtoes  5.373923086 19.29304026 -105.8922705
lfemur  -38.24280167 0.8484249711 -10.73340034
ltibia  -0 0 58.27870178
lfoot  4.435147116e-032 -5.60973978 -2.870640039
ltoes  -4.250644065 -19.5611806 -102.515957
174
root  6.72935576 38.51355605 0.07304222448 -171.8070068 -74.70600128 172.6680298
lowerback  19.37639999 4.27023983 -1.53816998
upperback  7.219989777 4.700620174 -0.6273270249
thorax  -3.09965992 2.073489904 -0.7963010073
lowerneck  -4.575290203 8.279219627 3.456099987
upperneck  9.662679672 10.8973999 -1.551990032
head  4.305480003 5.405389786 -0.5351799726
lclavicle  0 -9.442270133e-015 7.951389973e-016
lhumerus  16.42160034 -10.88650036 74.15200043
lradius  2.565541626e-031 -2.426281146e-031 136.5980072
lwrist  -7.062250077e-031 -3.531125038e-031 2.372139931
lhand  -1.496451383e-031 -27.76390076 20.11240005
lfingers  90 7.125020027 -90
lthumb  89.89689403 5.08795885 91.16245106
rclavicle  0 -9.442270133e-015 7.951389973e-016
rhumerus  33.04090118 27.85099983 -73.06690216
rradius  -1.980502708e-031 2.923431727e-031 124.1159973
rwrist  0 -0 -8.613069534
rhand  -7.920061211e-032 -33.2840004 9.303460121
rfingers  -90 -7.125020027 -90
rthumb  -92.93752616 -24.25625642 -97.11982154
rfemur  -25.6121006 21.10779953 -3.345779896
rtibia  -0 0 54.2276001
rfoot  -4.608691805e-032 -16.7173996 -1.707000017
rtoes  5.373923086 19.29304026 -105.8922705
lfemur  -38.08760071 0.6701809764 -10.80550003
ltibia  -0 0 57.86999893
lfoot  4.445480691e-032 -6.832870007 1.327659965
ltoes  -4.250644065 -19.5611806 -102.515957
175
root  6.775822226 38.4077778 0.04556911198 -172.9019775 -74.81600189 173.6129761
lowerback  19.03100014 3.85739994 -1.927129984
upperback  7.14343977 4.145420074 -0.1190939993
thorax  -3.070179939 1.797099948 0.09466119856
lowerneck  -3.955430031 8.680800438 1.580610037
upperneck  9.84346962 11.5564003 -1.191689968
head  4.103320122 5.678939819 -0.1026870012
lclavicle  0 -9.442270133e-015 7.951389973e-016
lhumerus  15.52200031 -9.267439842 74.77159882
lradius  2.555397918e-031 -2.436962355e-031 136.3589935
lwrist  -7.062250077e-031 -0 1.772289991
lhand  -1.496451383e-031 -27.76390076 20.11240005
lfingers  90 7.125020027 -90
lthumb  89.89689403 5.08795885 91.16245106
rclavicle  0 -9.442270133e-015 7.951389973e-016
rhumerus  33.32960129 28.82410049 -72.86930084
rradius  -2.000914512e-031 2.909499124e-031 124.5169983
rwrist  7.062250077e-031 -0 -11.26819992
rhand  -7.920061211e-032 -33.2840004 9.303460121
rfingers  -90 -7.125020027 -90
rthumb  -92.93752616 -24.25625642 -97.11982154
rfemur  -24.51079941 21.22550011 -2.687459946
rtibia  -0 0 55.31299973
rfoot  -4.602207876e-032 -16.44650078 -0.4037050009
rtoes  5.373923086 19.29304026 -105.8922705
lfemur  -37.84389877 0.3140229881 -10.76299953
ltibia  -0 0 57.85449982
lfoot  4.455934558e-032 -7.875549793 4.862309933
ltoes  -4.250644065 -19.5611806 -102.515957
176
root  6.822800073 38.29022205 0.01108113339 -174.7559814 -75.11299896 175.447998
lowerback  18.61219978 3.720940113 -1.699569941
upperback  7.044809818 4.047229767 0.0457716994
thorax  -2.954349995 1.759019971 0.1808090061
lowerneck  -3.728559971 8.678859711 1.532189965
upperneck  10.1651001 11.58679962 -1.489099979
head  4.193999767 5.672949791 -0.191219002
lclavicle  0 -9.442270133e-015 7.951389973e-016
lhumerus  15.24059963 -9.061010361 74.83940125
lradius  2.544954207e-031 -2.447866851e-031 136.1139984
lwrist  -7.062250077e-031 -0 1.174270034
lhand  -1.496451383e-031 -27.76390076 20.11240005
lfingers  90 7.125020027 -90
lthumb  89.89689403 5.08795885 91.16245106
rclavicle  0 -9.442270133e-015 7.951389973e-016
rhumerus  33.28570175 28.59219933 -72.92289734
rradius  -2.013337503e-031 2.90091643e-031 124.762001
rwrist  7.062250077e-031 -1.765562519e-031 -12.78960037
rhand  -7.920061211e-032 -33.2840004 9.303460121
rfingers  -90 -7.125020027 -90
rthumb  -92.93752616 -24.25625642 -97.11982154
rfemur  -23.33550072 21.13089943 -1.659600019
rtibia  -0 0 56.39020157
rfoot  -4.606260211e-032 -16.61639977 0.3109459877
rtoes  5.373923086 19.29304026 -105.8922705
lfemur  -37.79970169 -0.2735089958 -10.30210018
ltibia  -0 0 58.02470016
lfoot  4.4684091e-032 -8.958040237 4.684730053
ltoes  -4.250644065 -19.5611806 -102.515957
177
root  6.871110811 38.17533358 -0.04180755437 -176.309021 -75.54599762 177.0390015
lowerback  18.08569908 3.628410101 -1.567739964
upperback  6.944970131 3.991420031 0.186533004
thorax  -2.788389921 1.742149949 0.2906720042
lowerneck  -3.615410089 8.595370293 1.724709988
upperneck  10.46220016 11.52350044 -2.087779999
head  4.337369919 5.615330219 -0.4167590141
lclavicle  0 -9.442270133e-015 7.951389973e-016
lhumerus  14.9854002 -8.977499962 74.89320374
lradius  2.536608773e-031 -2.456513783e-031 135.9190063
lwrist  -1.059337512e-030 -0 0.8631749749
lhand  -1.496451383e-031 -27.76390076 20.11240005
lfingers  90 7.125020027 -90
lthumb  89.89689403 5.08795885 91.16245106
rclavicle  0 -9.442270133e-015 7.951389973e-016
rhumerus  33.27939987 28.44339943 -72.74629974
rradius  -2.012071471e-031 2.901794692e-031 124.7369995
rwrist  7.062250077e-031 -1.765562519e-031 -13.14389992
rhand  -7.920061211e-032 -33.2840004 9.303460121
rfingers  -90 -7.125020027 -90
rthumb  -92.93752616 -24.25625642 -97.11982154
rfemur  -22.06539917 20.83919907 -0.6309080124
rtibia  -0 0 57.34140015
rfoot  -4.606065921e-032 -16.60829926 -1.633329988
rtoes  5.373923086 19.29304026 -105.8922705
lfemur  -37.87919998 -1.089169979 -9.758270264
ltibia  -0 0 58.11309814
lfoot  4.482117979e-032 -10.00870037 4.999519825
ltoes  -4.250644065 -19.5611806 -102.515957
178
root  6.920222035 38.06533213 -0.1024824428 -177.0609741 -76.01699829 177.5739746
lowerback  17.75029945 3.575670004 -1.720450044
upperback  6.916860104 3.923409939 0.3164539933
thorax  -2.662090063 1.710620046 0.5425739884
lowerneck  -3.422009945 8.578849792 1.437639952
upperneck  10.56980038 11.54880047 -2.351860046
head  4.338270187 5.602290154 -0.4615550041
lclavicle  0 -9.442270133e-015 7.951389973e-016
lhumerus  14.63020039 -8.781769753 75.0121994
lradius  2.532789712e-031 -2.460451241e-031 135.8300018
lwrist  0 -0 0.6919659972
lhand  -1.496451383e-031 -27.76390076 20.11240005
lfingers  90 7.125020027 -90
lthumb  89.89689403 5.08795885 91.16245106
rclavicle  0 -9.442270133e-015 7.951389973e-016
rhumerus  33.3185997 28.38209915 -72.52310181
rradius  -2.010247665e-031 2.90305845e-031 124.7009964
rwrist  7.062250077e-031 -1.765562519e-031 -13.3682003
rhand  -7.920061211e-032 -33.2840004 9.303460121
rfingers  -90 -7.125020027 -90
rthumb  -92.93752616 -24.25625642 -97.11982154
rfemur  -20.42589951 20.55660057 0.2117580026
rtibia  -0 0 58.01539993
rfoot  -4.607014381e-032 -16.64780045 -4.402959824
rtoes  5.373923086 19.29304026 -105.8922705
lfemur  -37.65319824 -2.003079891 -9.401679993
ltibia  -0 0 57.94459915
lfoot  4.495268036e-032 -10.91759968 5.913310051
ltoes  -4.250644065 -19.5611806 -102.515957
179
root  6.971822573 37.96822255 -0.1672535548 -177.2160034 -76.48999786 177.2930298
lowerback  17.72529984 3.570660114 -1.938869953
upperback  6.889239788 3.888360023 0.34246099
thorax  -2.693680048 1.692829967 0.699581027
lowerneck  -3.05343008 8.580659866 0.8579890132
upperneck  10.47910023 11.57649994 -2.278909922
head  4.186299801 5.600289822 -0.3638769984
lclavicle  0 -9.442270133e-015 7.951389973e-016
lhumerus  14.16670036 -8.658470154 75.04920197
lradius  2.533262106e-031 -2.459964865e-031 135.8410034
lwrist  -7.062250077e-031 -0 0.4377619922
lhand  -1.496451383e-031 -27.76390076 20.11240005
lfingers  90 7.125020027 -90
lthumb  89.89689403 5.08795885 91.16245106
rclavicle  0 -9.442270133e-015 7.951389973e-016
rhumerus  33.29750061 28.43390083 -72.39969635
rradius  -2.004670847e-031 2.90691225e-031 124.5910034
rwrist  7.062250077e-031 -0 -12.71350002
rhand  -7.920061211e-032 -33.2840004 9.303460121
rfingers  -90 -7.125020027 -90
rthumb  -92.93752616 -24.25625642 -97.11982154
rfemur  -18.48699951 20.26980019 0.9385089874
rtibia  -0 0 58.28310013
rfoot  -0 -16.97870064 -7.55298996
rtoes  5.373923086 19.29304026 -105.8922705
lfemur  -37.05550003 -2.854599953 -9.162799835
ltibia  -0 0 57.47990036
lfoot  -0 -11.42140007 6.51624012
ltoes  -4.250644065 -19.5611806 -102.515957
